<svg version="1.1" id="Layer_1" xmlns="http://www.w3.org/2000/svg" xmlns:xlink="http://www.w3.org/1999/xlink" x="0px" y="0px"
	 width="100%" viewBox="0 0 2390 1760" enable-background="new 0 0 2390 1760" xml:space="preserve">
<path fill="#FFFFFF" opacity="1.000000" stroke="none" 
	d="
M1472.000000,1762.000000 
	C981.392212,1762.000000 491.784454,1762.000000 2.088347,1762.000000 
	C2.088347,1175.462769 2.088347,588.925598 2.088347,2.000000 
	C400.155884,2.000000 798.311890,2.000000 1196.467896,2.000000 
	C1594.753296,2.000000 1993.038818,2.000000 2391.662109,2.000000 
	C2391.662109,588.666504 2391.662109,1175.333252 2391.662109,1762.000000 
	C2085.591797,1762.000000 1779.295898,1762.000000 1472.000000,1762.000000 
M736.257019,899.255981 
	C726.348511,909.598633 716.551270,920.050659 706.512085,930.264832 
	C663.294861,974.235718 620.046936,1018.176636 576.729431,1062.048706 
	C549.563782,1089.562134 522.228088,1116.907715 495.056458,1144.415283 
	C492.711670,1146.789062 489.026367,1148.630981 489.471954,1153.340698 
	C491.818359,1153.515625 493.779175,1153.788696 495.740112,1153.789429 
	C543.071594,1153.808228 590.404175,1153.977661 637.734131,1153.706543 
	C657.178101,1153.595093 674.034546,1146.577881 688.013062,1132.705566 
	C741.000366,1080.121216 794.193604,1027.744019 847.115479,975.094116 
	C907.135132,915.382812 966.937439,855.453186 1026.858032,795.642273 
	C1035.348755,787.167114 1036.047363,787.113037 1044.418945,795.592468 
	C1054.715088,806.021179 1064.626587,816.832092 1075.003906,827.177551 
	C1091.265869,843.389893 1107.910156,859.218933 1124.148682,875.454285 
	C1140.876221,892.178772 1157.185059,909.322083 1173.910889,926.048401 
	C1190.635986,942.773987 1207.692871,959.167419 1224.525146,975.786682 
	C1238.738281,989.820190 1253.117676,1003.702087 1266.895508,1018.154358 
	C1277.019043,1028.773438 1289.305054,1033.657593 1303.476318,1033.727783 
	C1349.473022,1033.955566 1395.471680,1033.846191 1441.469360,1033.786011 
	C1444.269531,1033.782227 1447.068726,1033.078125 1451.932129,1032.421143 
	C1449.117554,1028.270264 1447.700928,1025.424438 1445.609741,1023.218140 
	C1430.255371,1007.019470 1414.837646,990.879395 1399.305664,974.851013 
	C1356.177490,930.344543 1312.945312,885.938904 1269.828247,841.421692 
	C1232.044678,802.410950 1194.357056,763.307251 1156.635620,724.236389 
	C1136.733765,703.622437 1116.820068,683.019592 1096.968750,662.356995 
	C1083.584595,648.425781 1070.539673,634.160095 1056.904297,620.481262 
	C1043.021240,606.553833 1025.971313,606.524109 1011.553467,619.740112 
	C1009.343506,621.765869 1007.232910,623.904297 1005.138428,626.051147 
	C983.500122,648.231323 961.934387,670.482605 940.232544,692.600403 
	C900.088501,733.514038 859.914734,774.398682 819.661011,815.204346 
	C792.273438,842.967590 764.728638,870.575684 736.257019,899.255981 
M1551.803101,963.137695 
	C1606.633057,1017.162720 1661.461060,1071.189941 1716.298706,1125.207153 
	C1719.384888,1128.246948 1722.480347,1131.283813 1725.693970,1134.186401 
	C1738.447998,1145.706299 1753.159790,1153.489258 1770.531006,1153.654053 
	C1815.185425,1154.077637 1859.846191,1153.832886 1904.504517,1153.781372 
	C1906.619019,1153.778931 1908.732788,1153.062500 1912.473022,1152.383301 
	C1906.624634,1146.275879 1901.945190,1141.197754 1897.064819,1136.320679 
	C1774.244263,1013.583313 1651.397949,890.871582 1528.568726,768.142944 
	C1509.708618,749.298157 1490.845215,730.455566 1472.112061,711.484924 
	C1463.936157,703.205566 1454.627808,698.557068 1442.649048,699.781555 
	C1432.716675,700.796814 1425.379761,706.032166 1418.635864,712.796875 
	C1380.047241,751.504395 1341.390137,790.143616 1302.774170,828.824036 
	C1291.630981,839.985779 1291.695679,839.976501 1302.948853,851.528259 
	C1322.475220,871.572571 1341.877075,891.738586 1361.486694,911.700806 
	C1368.157471,918.491516 1374.242554,925.988647 1382.554810,931.719543 
	C1385.413940,929.031006 1387.867432,926.825012 1390.208862,924.505920 
	C1406.784302,908.089111 1423.273071,891.584412 1439.945312,875.266785 
	C1443.621704,871.668640 1447.921875,868.707642 1452.388916,865.084839 
	C1461.146118,873.785339 1468.905273,881.534180 1476.708008,889.239075 
	C1501.364014,913.586426 1526.036255,937.917297 1551.803101,963.137695 
M1319.105713,1120.123169 
	C1316.790894,1123.166504 1314.475952,1126.209717 1311.203003,1130.512451 
	C1307.924683,1125.739746 1305.369629,1122.378418 1303.191040,1118.788696 
	C1291.628906,1099.738037 1280.378296,1080.494629 1268.583252,1061.590332 
	C1260.883301,1049.249512 1250.963501,1045.858154 1237.000244,1049.656860 
	C1228.381104,1052.001709 1226.122681,1054.617676 1225.909058,1063.707153 
	C1225.683350,1073.308960 1225.836304,1082.920044 1225.846069,1092.526978 
	C1225.863647,1109.840210 1225.857178,1127.153809 1225.958740,1144.466553 
	C1225.979492,1147.989502 1226.432861,1151.509888 1226.704346,1155.276611 
	C1234.876465,1155.276611 1241.966553,1155.276611 1249.855103,1155.276611 
	C1250.458496,1149.568970 1251.369507,1144.678101 1251.421509,1139.778320 
	C1251.594971,1123.465820 1251.418823,1107.149902 1251.496948,1090.835938 
	C1251.506470,1088.853394 1252.250000,1086.874268 1253.107178,1082.666138 
	C1259.649048,1093.813721 1264.813354,1103.054932 1270.402832,1112.031494 
	C1278.130859,1124.441895 1285.590820,1137.088623 1294.275269,1148.812256 
	C1301.268188,1158.252319 1310.978638,1160.393799 1320.873657,1155.438843 
	C1325.361572,1153.191406 1329.505127,1149.072876 1332.283081,1144.811401 
	C1341.541138,1130.609741 1350.063354,1115.930176 1358.966187,1101.494751 
	C1362.527344,1095.720703 1366.345581,1090.105347 1370.046753,1084.417847 
	C1372.165527,1087.833618 1372.534790,1090.627197 1372.541748,1093.421631 
	C1372.581543,1109.402832 1372.520020,1125.384399 1372.521851,1141.365845 
	C1372.523804,1157.426514 1375.496948,1159.832520 1391.588135,1156.691772 
	C1393.472168,1156.323975 1395.255127,1155.438232 1397.427612,1154.671753 
	C1397.823364,1149.771362 1398.527222,1145.175659 1398.510742,1140.582520 
	C1398.414185,1113.659912 1398.192505,1086.737549 1397.901001,1059.816406 
	C1397.848633,1054.983032 1395.227417,1051.857422 1390.552612,1050.267456 
	C1376.506470,1045.490112 1363.007202,1049.569702 1355.064575,1062.016235 
	C1343.078613,1080.799072 1331.588379,1099.898438 1319.105713,1120.123169 
M1515.845825,1076.151123 
	C1502.181641,1076.080933 1488.517212,1075.934082 1474.853149,1075.961914 
	C1460.980713,1075.990234 1447.108521,1076.190552 1432.847900,1076.318970 
	C1432.847900,1083.455078 1432.847900,1089.196045 1432.847900,1095.812866 
	C1436.943848,1095.812866 1440.217896,1095.806763 1443.491943,1095.813843 
	C1461.489746,1095.852783 1479.487549,1095.904175 1497.485352,1095.930298 
	C1502.433350,1095.937500 1506.851074,1096.606323 1507.496094,1103.516602 
	C1505.304199,1104.297729 1503.250732,1105.341553 1501.081665,1105.716553 
	C1498.811768,1106.109131 1496.430664,1105.876099 1494.098022,1105.887451 
	C1480.766479,1105.952759 1467.434204,1105.938599 1454.103638,1106.085938 
	C1435.234253,1106.294312 1430.274414,1111.210083 1430.040283,1129.704224 
	C1430.002319,1132.703247 1429.914062,1135.709229 1430.060913,1138.701660 
	C1430.532349,1148.300049 1434.585938,1153.477417 1443.893921,1155.665527 
	C1448.392456,1156.723022 1453.076050,1157.357422 1457.693604,1157.471802 
	C1468.352295,1157.736206 1479.023315,1157.668457 1489.686157,1157.510864 
	C1492.972290,1157.462402 1496.344604,1157.037109 1499.505737,1156.163086 
	C1504.265259,1154.847046 1508.123657,1154.127808 1513.450439,1156.527588 
	C1524.897461,1161.684692 1531.734497,1156.269043 1531.775635,1143.469727 
	C1531.827026,1127.472656 1531.781006,1111.473633 1531.577026,1095.478027 
	C1531.454834,1085.896851 1527.718994,1078.688965 1515.845825,1076.151123 
M799.816284,1154.494019 
	C800.488831,1145.986328 801.210144,1137.482178 801.813110,1128.969604 
	C802.107605,1124.811523 802.181458,1120.637817 802.379883,1115.879517 
	C816.559875,1115.879517 829.510742,1115.890381 842.461609,1115.876953 
	C863.198181,1115.855469 863.205200,1115.848022 861.168091,1094.703491 
	C861.112976,1094.131714 860.494324,1093.614136 859.610413,1092.265991 
	C841.121033,1091.250977 821.929810,1092.684692 802.605347,1091.424927 
	C802.605347,1085.550049 802.605347,1081.126099 802.605347,1075.572021 
	C806.995911,1075.572021 810.577148,1075.578125 814.158386,1075.571045 
	C833.806946,1075.532227 853.455627,1075.510986 873.104126,1075.442749 
	C888.531677,1075.389038 888.531555,1075.362549 887.834106,1059.735107 
	C887.444458,1051.005493 886.731140,1050.137207 877.800781,1050.085693 
	C857.486694,1049.968628 837.171509,1050.039551 816.856812,1050.044800 
	C808.531189,1050.046875 800.200378,1049.900146 791.881226,1050.140747 
	C782.632385,1050.408325 777.281799,1055.552490 776.168335,1064.811401 
	C775.970398,1066.457642 776.001404,1068.136841 776.000549,1069.800781 
	C775.987915,1095.110718 775.964233,1120.420776 776.016113,1145.730591 
	C776.022095,1148.655640 776.464233,1151.579712 776.677612,1154.180420 
	C786.301514,1158.135498 787.112305,1158.174194 799.816284,1154.494019 
M1558.203247,1097.127686 
	C1558.185425,1114.443726 1558.064575,1131.760742 1558.199097,1149.075562 
	C1558.255249,1156.301025 1559.291382,1157.386963 1566.257080,1157.234863 
	C1571.123535,1157.128662 1575.969849,1156.090820 1581.130371,1155.429932 
	C1581.505859,1151.926880 1581.931763,1149.351074 1582.033569,1146.762573 
	C1582.517212,1134.469849 1582.868164,1122.172119 1583.355225,1109.879517 
	C1583.657104,1102.259399 1585.271851,1100.459229 1592.831543,1100.149536 
	C1599.813110,1099.863525 1606.815552,1100.115967 1613.808105,1100.058838 
	C1630.620972,1099.921509 1632.871704,1097.613525 1631.701416,1120.147217 
	C1631.236328,1129.102173 1630.565186,1138.097290 1630.956299,1147.031616 
	C1631.337646,1155.741943 1634.679199,1157.890503 1644.273071,1157.492065 
	C1653.204834,1157.121338 1655.607910,1154.969238 1655.684570,1146.143555 
	C1655.834961,1128.828735 1655.834473,1111.510010 1655.644775,1094.195801 
	C1655.518677,1082.693848 1650.127075,1077.109619 1638.491699,1076.612915 
	C1629.183838,1076.215698 1619.830933,1076.147827 1610.527588,1076.575439 
	C1601.976807,1076.968262 1593.465454,1078.217529 1582.891602,1079.298706 
	C1583.774414,1079.814331 1582.685181,1079.089111 1581.521973,1078.513306 
	C1574.893555,1075.232666 1567.460205,1075.069336 1561.251099,1077.653564 
	C1555.380981,1080.096924 1559.092529,1087.197632 1558.246948,1092.182129 
	C1558.082153,1093.153809 1558.216309,1094.176270 1558.203247,1097.127686 
M964.206665,1157.208984 
	C971.344116,1155.960327 978.481628,1154.711548 986.875244,1153.243042 
	C990.667236,1157.562012 997.144226,1156.499512 1003.265381,1155.649292 
	C1005.324707,1155.363281 1007.743164,1152.961548 1008.729370,1150.915527 
	C1009.810120,1148.673218 1009.639099,1145.724854 1009.645081,1143.083374 
	C1009.689392,1123.423584 1009.665039,1103.763428 1009.592529,1084.103638 
	C1009.584290,1081.861206 1009.145813,1079.620239 1008.845703,1076.804688 
	C1001.228455,1076.804688 994.153137,1076.804688 986.407776,1076.804688 
	C986.231201,1080.772827 985.983154,1084.032104 985.960327,1087.292847 
	C985.890259,1097.289185 985.999939,1107.287354 985.864197,1117.282471 
	C985.713928,1128.348267 982.432251,1131.840210 971.738464,1132.122070 
	C963.413330,1132.341553 955.076050,1132.324829 946.748535,1132.171997 
	C938.220398,1132.015625 936.049744,1129.933716 935.934509,1121.530273 
	C935.770081,1109.536499 935.956360,1097.538452 935.880493,1085.542969 
	C935.862366,1082.678223 935.400208,1079.816406 935.148621,1077.023682 
	C927.111511,1077.023682 920.018311,1077.023682 912.590210,1077.023682 
	C912.381409,1080.519531 912.098816,1083.140869 912.088867,1085.763306 
	C912.029602,1101.424561 912.365967,1117.095581 911.924744,1132.745117 
	C911.457031,1149.338379 919.645386,1153.838135 932.549744,1155.530640 
	C942.413879,1156.824219 952.459412,1156.734375 964.206665,1157.208984 
M1042.567871,1081.008545 
	C1042.557617,1099.320435 1042.542236,1117.632324 1042.541138,1135.944214 
	C1042.540894,1140.272339 1042.396362,1144.612305 1042.659424,1148.925903 
	C1043.053833,1155.392578 1044.868286,1157.465942 1051.290405,1157.198608 
	C1067.905884,1156.506958 1067.527222,1155.337280 1067.539673,1141.589722 
	C1067.564453,1114.288452 1067.589233,1086.987061 1067.553101,1059.685791 
	C1067.549194,1056.795532 1067.138672,1053.905884 1066.888672,1050.651367 
	C1058.660645,1050.651367 1051.209961,1050.651367 1042.570801,1050.651367 
	C1042.570801,1060.566040 1042.570801,1069.789551 1042.567871,1081.008545 
M1098.409668,1147.996338 
	C1100.034912,1156.563232 1100.636108,1157.195679 1108.134521,1157.310791 
	C1110.444824,1157.346313 1112.797363,1157.201172 1115.067383,1156.789551 
	C1121.615845,1155.602173 1122.746704,1154.356567 1123.359009,1147.671753 
	C1123.600830,1145.031738 1123.484009,1142.356445 1123.485718,1139.697266 
	C1123.500244,1116.426758 1123.771484,1093.152466 1123.431641,1069.887085 
	C1123.133545,1049.467163 1128.936646,1048.786865 1101.029419,1050.579712 
	C1100.484619,1050.614624 1099.981201,1051.292236 1098.399170,1052.435547 
	C1098.399170,1083.167358 1098.399170,1114.674805 1098.409668,1147.996338 
z"/>
<path fill="#FED567" opacity="1.000000" stroke="none" 
	d="
M736.755554,898.754578 
	C764.728638,870.575684 792.273438,842.967590 819.661011,815.204346 
	C859.914734,774.398682 900.088501,733.514038 940.232544,692.600403 
	C961.934387,670.482605 983.500122,648.231323 1005.138428,626.051147 
	C1007.232910,623.904297 1009.343506,621.765869 1011.553467,619.740112 
	C1025.971313,606.524109 1043.021240,606.553833 1056.904297,620.481262 
	C1070.539673,634.160095 1083.584595,648.425781 1096.968750,662.356995 
	C1116.820068,683.019592 1136.733765,703.622437 1156.635620,724.236389 
	C1194.357056,763.307251 1232.044678,802.410950 1269.828247,841.421692 
	C1312.945312,885.938904 1356.177490,930.344543 1399.305664,974.851013 
	C1414.837646,990.879395 1430.255371,1007.019470 1445.609741,1023.218140 
	C1447.700928,1025.424438 1449.117554,1028.270264 1451.932129,1032.421143 
	C1447.068726,1033.078125 1444.269531,1033.782227 1441.469360,1033.786011 
	C1395.471680,1033.846191 1349.473022,1033.955566 1303.476318,1033.727783 
	C1289.305054,1033.657593 1277.019043,1028.773438 1266.895508,1018.154358 
	C1253.117676,1003.702087 1238.738281,989.820190 1224.525146,975.786682 
	C1207.692871,959.167419 1190.635986,942.773987 1173.910889,926.048401 
	C1157.185059,909.322083 1140.876221,892.178772 1124.148682,875.454285 
	C1107.910156,859.218933 1091.265869,843.389893 1075.003906,827.177551 
	C1064.626587,816.832092 1054.715088,806.021179 1044.418945,795.592468 
	C1036.047363,787.113037 1035.348755,787.167114 1026.858032,795.642273 
	C966.937439,855.453186 907.135132,915.382812 847.115479,975.094116 
	C794.193604,1027.744019 741.000366,1080.121216 688.013062,1132.705566 
	C674.034546,1146.577881 657.178101,1153.595093 637.734131,1153.706543 
	C590.404175,1153.977661 543.071594,1153.808228 495.740112,1153.789429 
	C493.779175,1153.788696 491.818359,1153.515625 489.471954,1153.340698 
	C489.026367,1148.630981 492.711670,1146.789062 495.056458,1144.415283 
	C522.228088,1116.907715 549.563782,1089.562134 576.729431,1062.048706 
	C620.046936,1018.176636 663.294861,974.235718 706.512085,930.264832 
	C716.551270,920.050659 726.348511,909.598633 736.755554,898.754578 
z"/>
<path fill="#FED567" opacity="1.000000" stroke="none" 
	d="
M1551.252686,962.696106 
	C1526.036255,937.917297 1501.364014,913.586426 1476.708008,889.239075 
	C1468.905273,881.534180 1461.146118,873.785339 1452.388916,865.084839 
	C1447.921875,868.707642 1443.621704,871.668640 1439.945312,875.266785 
	C1423.273071,891.584412 1406.784302,908.089111 1390.208862,924.505920 
	C1387.867432,926.825012 1385.413940,929.031006 1382.554810,931.719543 
	C1374.242554,925.988647 1368.157471,918.491516 1361.486694,911.700806 
	C1341.877075,891.738586 1322.475220,871.572571 1302.948853,851.528259 
	C1291.695679,839.976501 1291.630981,839.985779 1302.774170,828.824036 
	C1341.390137,790.143616 1380.047241,751.504395 1418.635864,712.796875 
	C1425.379761,706.032166 1432.716675,700.796814 1442.649048,699.781555 
	C1454.627808,698.557068 1463.936157,703.205566 1472.112061,711.484924 
	C1490.845215,730.455566 1509.708618,749.298157 1528.568726,768.142944 
	C1651.397949,890.871582 1774.244263,1013.583313 1897.064819,1136.320679 
	C1901.945190,1141.197754 1906.624634,1146.275879 1912.473022,1152.383301 
	C1908.732788,1153.062500 1906.619019,1153.778931 1904.504517,1153.781372 
	C1859.846191,1153.832886 1815.185425,1154.077637 1770.531006,1153.654053 
	C1753.159790,1153.489258 1738.447998,1145.706299 1725.693970,1134.186401 
	C1722.480347,1131.283813 1719.384888,1128.246948 1716.298706,1125.207153 
	C1661.461060,1071.189941 1606.633057,1017.162720 1551.252686,962.696106 
z"/>
<path fill="#FCD46A" opacity="1.000000" stroke="none" 
	d="
M1319.496582,1119.493164 
	C1331.588379,1099.898438 1343.078613,1080.799072 1355.064575,1062.016235 
	C1363.007202,1049.569702 1376.506470,1045.490112 1390.552612,1050.267456 
	C1395.227417,1051.857422 1397.848633,1054.983032 1397.901001,1059.816406 
	C1398.192505,1086.737549 1398.414185,1113.659912 1398.510742,1140.582520 
	C1398.527222,1145.175659 1397.823364,1149.771362 1397.427612,1154.671753 
	C1395.255127,1155.438232 1393.472168,1156.323975 1391.588135,1156.691772 
	C1375.496948,1159.832520 1372.523804,1157.426514 1372.521851,1141.365845 
	C1372.520020,1125.384399 1372.581543,1109.402832 1372.541748,1093.421631 
	C1372.534790,1090.627197 1372.165527,1087.833618 1370.046753,1084.417847 
	C1366.345581,1090.105347 1362.527344,1095.720703 1358.966187,1101.494751 
	C1350.063354,1115.930176 1341.541138,1130.609741 1332.283081,1144.811401 
	C1329.505127,1149.072876 1325.361572,1153.191406 1320.873657,1155.438843 
	C1310.978638,1160.393799 1301.268188,1158.252319 1294.275269,1148.812256 
	C1285.590820,1137.088623 1278.130859,1124.441895 1270.402832,1112.031494 
	C1264.813354,1103.054932 1259.649048,1093.813721 1253.107178,1082.666138 
	C1252.250000,1086.874268 1251.506470,1088.853394 1251.496948,1090.835938 
	C1251.418823,1107.149902 1251.594971,1123.465820 1251.421509,1139.778320 
	C1251.369507,1144.678101 1250.458496,1149.568970 1249.855103,1155.276611 
	C1241.966553,1155.276611 1234.876465,1155.276611 1226.704346,1155.276611 
	C1226.432861,1151.509888 1225.979492,1147.989502 1225.958740,1144.466553 
	C1225.857178,1127.153809 1225.863647,1109.840210 1225.846069,1092.526978 
	C1225.836304,1082.920044 1225.683350,1073.308960 1225.909058,1063.707153 
	C1226.122681,1054.617676 1228.381104,1052.001709 1237.000244,1049.656860 
	C1250.963501,1045.858154 1260.883301,1049.249512 1268.583252,1061.590332 
	C1280.378296,1080.494629 1291.628906,1099.738037 1303.191040,1118.788696 
	C1305.369629,1122.378418 1307.924683,1125.739746 1311.203003,1130.512451 
	C1314.475952,1126.209717 1316.790894,1123.166504 1319.496582,1119.493164 
z"/>
<path fill="#FBD46D" opacity="1.000000" stroke="none" 
	d="
M1516.705566,1076.229980 
	C1527.718994,1078.688965 1531.454834,1085.896851 1531.577026,1095.478027 
	C1531.781006,1111.473633 1531.827026,1127.472656 1531.775635,1143.469727 
	C1531.734497,1156.269043 1524.897461,1161.684692 1513.450439,1156.527588 
	C1508.123657,1154.127808 1504.265259,1154.847046 1499.505737,1156.163086 
	C1496.344604,1157.037109 1492.972290,1157.462402 1489.686157,1157.510864 
	C1479.023315,1157.668457 1468.352295,1157.736206 1457.693604,1157.471802 
	C1453.076050,1157.357422 1448.392456,1156.723022 1443.893921,1155.665527 
	C1434.585938,1153.477417 1430.532349,1148.300049 1430.060913,1138.701660 
	C1429.914062,1135.709229 1430.002319,1132.703247 1430.040283,1129.704224 
	C1430.274414,1111.210083 1435.234253,1106.294312 1454.103638,1106.085938 
	C1467.434204,1105.938599 1480.766479,1105.952759 1494.098022,1105.887451 
	C1496.430664,1105.876099 1498.811768,1106.109131 1501.081665,1105.716553 
	C1503.250732,1105.341553 1505.304199,1104.297729 1507.496094,1103.516602 
	C1506.851074,1096.606323 1502.433350,1095.937500 1497.485352,1095.930298 
	C1479.487549,1095.904175 1461.489746,1095.852783 1443.491943,1095.813843 
	C1440.217896,1095.806763 1436.943848,1095.812866 1432.847900,1095.812866 
	C1432.847900,1089.196045 1432.847900,1083.455078 1432.847900,1076.318970 
	C1447.108521,1076.190552 1460.980713,1075.990234 1474.853149,1075.961914 
	C1488.517212,1075.934082 1502.181641,1076.080933 1516.705566,1076.229980 
M1500.998657,1136.527344 
	C1506.160156,1135.744141 1508.674438,1132.798706 1507.912231,1127.566895 
	C1507.113892,1122.087158 1502.788452,1122.313477 1498.750122,1122.314209 
	C1487.138672,1122.316162 1475.524902,1122.229370 1463.916504,1122.428101 
	C1457.284546,1122.541626 1454.208618,1125.093262 1454.120605,1129.794678 
	C1454.031006,1134.576782 1457.149780,1137.521606 1463.551025,1137.545532 
	C1475.477783,1137.590210 1487.406128,1137.177490 1500.998657,1136.527344 
z"/>
<path fill="#FBD46C" opacity="1.000000" stroke="none" 
	d="
M799.139038,1154.975952 
	C787.112305,1158.174194 786.301514,1158.135498 776.677612,1154.180420 
	C776.464233,1151.579712 776.022095,1148.655640 776.016113,1145.730591 
	C775.964233,1120.420776 775.987915,1095.110718 776.000549,1069.800781 
	C776.001404,1068.136841 775.970398,1066.457642 776.168335,1064.811401 
	C777.281799,1055.552490 782.632385,1050.408325 791.881226,1050.140747 
	C800.200378,1049.900146 808.531189,1050.046875 816.856812,1050.044800 
	C837.171509,1050.039551 857.486694,1049.968628 877.800781,1050.085693 
	C886.731140,1050.137207 887.444458,1051.005493 887.834106,1059.735107 
	C888.531555,1075.362549 888.531677,1075.389038 873.104126,1075.442749 
	C853.455627,1075.510986 833.806946,1075.532227 814.158386,1075.571045 
	C810.577148,1075.578125 806.995911,1075.572021 802.605347,1075.572021 
	C802.605347,1081.126099 802.605347,1085.550049 802.605347,1091.424927 
	C821.929810,1092.684692 841.121033,1091.250977 859.610413,1092.265991 
	C860.494324,1093.614136 861.112976,1094.131714 861.168091,1094.703491 
	C863.205200,1115.848022 863.198181,1115.855469 842.461609,1115.876953 
	C829.510742,1115.890381 816.559875,1115.879517 802.379883,1115.879517 
	C802.181458,1120.637817 802.107605,1124.811523 801.813110,1128.969604 
	C801.210144,1137.482178 800.488831,1145.986328 799.139038,1154.975952 
z"/>
<path fill="#FBD46B" opacity="1.000000" stroke="none" 
	d="
M1558.208008,1096.151489 
	C1558.216309,1094.176270 1558.082153,1093.153809 1558.246948,1092.182129 
	C1559.092529,1087.197632 1555.380981,1080.096924 1561.251099,1077.653564 
	C1567.460205,1075.069336 1574.893555,1075.232666 1581.521973,1078.513306 
	C1582.685181,1079.089111 1583.774414,1079.814331 1582.891602,1079.298706 
	C1593.465454,1078.217529 1601.976807,1076.968262 1610.527588,1076.575439 
	C1619.830933,1076.147827 1629.183838,1076.215698 1638.491699,1076.612915 
	C1650.127075,1077.109619 1655.518677,1082.693848 1655.644775,1094.195801 
	C1655.834473,1111.510010 1655.834961,1128.828735 1655.684570,1146.143555 
	C1655.607910,1154.969238 1653.204834,1157.121338 1644.273071,1157.492065 
	C1634.679199,1157.890503 1631.337646,1155.741943 1630.956299,1147.031616 
	C1630.565186,1138.097290 1631.236328,1129.102173 1631.701416,1120.147217 
	C1632.871704,1097.613525 1630.620972,1099.921509 1613.808105,1100.058838 
	C1606.815552,1100.115967 1599.813110,1099.863525 1592.831543,1100.149536 
	C1585.271851,1100.459229 1583.657104,1102.259399 1583.355225,1109.879517 
	C1582.868164,1122.172119 1582.517212,1134.469849 1582.033569,1146.762573 
	C1581.931763,1149.351074 1581.505859,1151.926880 1581.130371,1155.429932 
	C1575.969849,1156.090820 1571.123535,1157.128662 1566.257080,1157.234863 
	C1559.291382,1157.386963 1558.255249,1156.301025 1558.199097,1149.075562 
	C1558.064575,1131.760742 1558.185425,1114.443726 1558.208008,1096.151489 
z"/>
<path fill="#FAD46D" opacity="1.000000" stroke="none" 
	d="
M963.315430,1157.234375 
	C952.459412,1156.734375 942.413879,1156.824219 932.549744,1155.530640 
	C919.645386,1153.838135 911.457031,1149.338379 911.924744,1132.745117 
	C912.365967,1117.095581 912.029602,1101.424561 912.088867,1085.763306 
	C912.098816,1083.140869 912.381409,1080.519531 912.590210,1077.023682 
	C920.018311,1077.023682 927.111511,1077.023682 935.148621,1077.023682 
	C935.400208,1079.816406 935.862366,1082.678223 935.880493,1085.542969 
	C935.956360,1097.538452 935.770081,1109.536499 935.934509,1121.530273 
	C936.049744,1129.933716 938.220398,1132.015625 946.748535,1132.171997 
	C955.076050,1132.324829 963.413330,1132.341553 971.738464,1132.122070 
	C982.432251,1131.840210 985.713928,1128.348267 985.864197,1117.282471 
	C985.999939,1107.287354 985.890259,1097.289185 985.960327,1087.292847 
	C985.983154,1084.032104 986.231201,1080.772827 986.407776,1076.804688 
	C994.153137,1076.804688 1001.228455,1076.804688 1008.845703,1076.804688 
	C1009.145813,1079.620239 1009.584290,1081.861206 1009.592529,1084.103638 
	C1009.665039,1103.763428 1009.689392,1123.423584 1009.645081,1143.083374 
	C1009.639099,1145.724854 1009.810120,1148.673218 1008.729370,1150.915527 
	C1007.743164,1152.961548 1005.324707,1155.363281 1003.265381,1155.649292 
	C997.144226,1156.499512 990.667236,1157.562012 986.875244,1153.243042 
	C978.481628,1154.711548 971.344116,1155.960327 963.315430,1157.234375 
z"/>
<path fill="#FCD46A" opacity="1.000000" stroke="none" 
	d="
M1042.569336,1080.010742 
	C1042.570801,1069.789551 1042.570801,1060.566040 1042.570801,1050.651367 
	C1051.209961,1050.651367 1058.660645,1050.651367 1066.888672,1050.651367 
	C1067.138672,1053.905884 1067.549194,1056.795532 1067.553101,1059.685791 
	C1067.589233,1086.987061 1067.564453,1114.288452 1067.539673,1141.589722 
	C1067.527222,1155.337280 1067.905884,1156.506958 1051.290405,1157.198608 
	C1044.868286,1157.465942 1043.053833,1155.392578 1042.659424,1148.925903 
	C1042.396362,1144.612305 1042.540894,1140.272339 1042.541138,1135.944214 
	C1042.542236,1117.632324 1042.557617,1099.320435 1042.569336,1080.010742 
z"/>
<path fill="#FBD46B" opacity="1.000000" stroke="none" 
	d="
M1098.404419,1147.089355 
	C1098.399170,1114.674805 1098.399170,1083.167358 1098.399170,1052.435547 
	C1099.981201,1051.292236 1100.484619,1050.614624 1101.029419,1050.579712 
	C1128.936646,1048.786865 1123.133545,1049.467163 1123.431641,1069.887085 
	C1123.771484,1093.152466 1123.500244,1116.426758 1123.485718,1139.697266 
	C1123.484009,1142.356445 1123.600830,1145.031738 1123.359009,1147.671753 
	C1122.746704,1154.356567 1121.615845,1155.602173 1115.067383,1156.789551 
	C1112.797363,1157.201172 1110.444824,1157.346313 1108.134521,1157.310791 
	C1100.636108,1157.195679 1100.034912,1156.563232 1098.404419,1147.089355 
z"/>
<path fill="#FDFAF0" opacity="1.000000" stroke="none" 
	d="
M1500.166260,1136.741211 
	C1487.406128,1137.177490 1475.477783,1137.590210 1463.551025,1137.545532 
	C1457.149780,1137.521606 1454.031006,1134.576782 1454.120605,1129.794678 
	C1454.208618,1125.093262 1457.284546,1122.541626 1463.916504,1122.428101 
	C1475.524902,1122.229370 1487.138672,1122.316162 1498.750122,1122.314209 
	C1502.788452,1122.313477 1507.113892,1122.087158 1507.912231,1127.566895 
	C1508.674438,1132.798706 1506.160156,1135.744141 1500.166260,1136.741211 
z"/>
</svg>